<svg xmlns="http://www.w3.org/2000/svg" width="20.03" height="20.031" viewBox="0 0 20.03 20.031">
  <defs>
    <style>
      .cls-1 {
        fill: #fff;
        fill-rule: evenodd;
      }
    </style>
  </defs>
  <path class="cls-1" d="M1815.15,64.881a2.146,2.146,0,1,1,2.14-2.145A2.145,2.145,0,0,1,1815.15,64.881Zm0,7.869a2.146,2.146,0,1,1,2.14-2.147A2.146,2.146,0,0,1,1815.15,72.75Zm0,7.868a2.146,2.146,0,1,1,2.14-2.146A2.145,2.145,0,0,1,1815.15,80.618Zm7.86-15.737a2.146,2.146,0,1,1,2.15-2.145A2.143,2.143,0,0,1,1823.01,64.881Zm0,7.869a2.146,2.146,0,1,1,2.15-2.147A2.144,2.144,0,0,1,1823.01,72.75Zm0,7.868a2.146,2.146,0,1,1,2.15-2.146A2.143,2.143,0,0,1,1823.01,80.618Zm7.87-15.737a2.146,2.146,0,1,1,2.15-2.145A2.143,2.143,0,0,1,1830.88,64.881Zm0,7.869a2.146,2.146,0,1,1,2.15-2.147A2.144,2.144,0,0,1,1830.88,72.75Zm0,7.868a2.146,2.146,0,1,1,2.15-2.146A2.143,2.143,0,0,1,1830.88,80.618Z" transform="translate(-1813 -60.594)"/>
</svg>
