<svg xmlns="http://www.w3.org/2000/svg">
  <symbol id="search">
    <g>
      <path d="M1547.7,72.076a0.617,0.617,0,0,1,.75.485,2.583,2.583,0,0,0,.78,1.489,3.036,3.036,0,0,0,1.49.777,0.636,0.636,0,0,1,.49.743,0.649,0.649,0,0,1-.72.515,4.21,4.21,0,0,1-2.14-1.13,4.164,4.164,0,0,1-1.13-2.136A0.6,0.6,0,0,1,1547.7,72.076ZM1550.98,66a6.267,6.267,0,0,1,6.28,6.257,6.136,6.136,0,0,1-.57,2.6l2.34,2.036c1.7,1.746.74,3.266,0.29,3.717-0.42.454-1.99,1.414-3.73-.292l-2.06-2.35A6.261,6.261,0,1,1,1550.98,66Zm5.55,13.517a1.352,1.352,0,0,0,1.88.226,1.313,1.313,0,0,0-.23-1.874l-2.16-1.88a6.236,6.236,0,0,1-1.37,1.34Zm-5.55-2.312a4.948,4.948,0,1,0-4.97-4.948A4.963,4.963,0,0,0,1550.98,77.2Z" transform="translate(-1544.72 -66)" />
    </g>
  </symbol>

  <symbol id="favorites">
    <g>
      <path fill-rule="evenodd" d="M9.913,16.244 C9.818,16.244 9.722,16.226 9.633,16.188 C9.280,16.039 0.983,12.439 0.983,5.429 C1.074,2.779 3.190,0.721 5.801,0.721 C7.544,0.721 9.067,1.639 9.913,3.031 C10.760,1.639 12.282,0.721 14.025,0.721 C16.634,0.721 18.750,2.779 18.842,5.405 C18.842,12.439 10.545,16.039 10.193,16.188 C10.103,16.226 10.008,16.244 9.913,16.244 ZM5.801,2.106 C3.954,2.106 2.458,3.576 2.393,5.452 C2.393,10.860 8.518,14.115 9.913,14.787 C11.308,14.115 17.433,10.857 17.433,5.429 C17.368,3.576 15.870,2.106 14.025,2.106 C12.180,2.106 10.683,3.576 10.617,5.452 C10.605,5.825 10.293,6.121 9.913,6.121 L9.913,6.121 C9.533,6.121 9.221,5.825 9.208,5.452 C9.144,3.576 7.647,2.106 5.801,2.106 Z" />
    </g>
  </symbol>

  <symbol id="basket">
    <g>
      <path d="M1720.53,85.978a2.073,2.073,0,1,1,0-4.147h0a2.056,2.056,0,0,1,1.46.6,2.03,2.03,0,0,1,.61,1.466A2.071,2.071,0,0,1,1720.53,85.978Zm0-2.963h0a0.889,0.889,0,1,0,.34,1.71,0.9,0.9,0,0,0,.55-0.824,0.92,0.92,0,0,0-.26-0.629A0.9,0.9,0,0,0,1720.53,83.015Zm8.39,2.963a2.045,2.045,0,0,1-1.46-.607,2.068,2.068,0,0,1,1.46-3.54h0a1.953,1.953,0,0,1,1.47.6,2.085,2.085,0,0,1-.67,3.383A2.093,2.093,0,0,1,1728.92,85.978Zm0-2.963h0a0.978,0.978,0,0,0-.82.548,0.887,0.887,0,0,0,1.16,1.161,0.891,0.891,0,0,0,.29-1.452A0.9,0.9,0,0,0,1728.92,83.015Zm-11.27.164a0.562,0.562,0,0,1-.25-0.056,0.59,0.59,0,0,1-.29-0.787,3.686,3.686,0,0,1,3.05-2.151l-1.05-5.391a0.591,0.591,0,1,1,1.16-.228l1.09,5.578h9.43l1.8-6.771h-13.3a4.346,4.346,0,0,1-4.28-3.693,0.587,0.587,0,0,1,.49-0.673,0.6,0.6,0,0,1,.68.5,3.159,3.159,0,0,0,3.11,2.682h14.07a0.582,0.582,0,0,1,.47.232,0.594,0.594,0,0,1,.11.513l-2.13,7.956a0.59,0.59,0,0,1-.57.44h-10.36a0.03,0.03,0,0,0-.02,0,2.66,2.66,0,0,0-2.68,1.51A0.586,0.586,0,0,1,1717.65,83.178Z" transform="translate(-1715 -69)" />
    </g>
  </symbol>

  <symbol id="menu" viewBox="0 0 20.03 20.031">
    <g>
      <path d="M1813.15,66.881a2.146,2.146,0,1,1,2.14-2.145A2.145,2.145,0,0,1,1813.15,66.881Zm0,7.869a2.146,2.146,0,1,1,2.14-2.147A2.146,2.146,0,0,1,1813.15,74.75Zm0,7.868a2.146,2.146,0,1,1,2.14-2.146A2.145,2.145,0,0,1,1813.15,82.618Zm7.86-15.737a2.146,2.146,0,1,1,2.15-2.145A2.143,2.143,0,0,1,1821.01,66.881Zm0,7.869a2.146,2.146,0,1,1,2.15-2.147A2.144,2.144,0,0,1,1821.01,74.75Zm0,7.868a2.146,2.146,0,1,1,2.15-2.146A2.143,2.143,0,0,1,1821.01,82.618Zm7.87-15.737a2.146,2.146,0,1,1,2.15-2.145A2.143,2.143,0,0,1,1828.88,66.881Zm0,7.869a2.146,2.146,0,1,1,2.15-2.147A2.144,2.144,0,0,1,1828.88,74.75Zm0,7.868a2.146,2.146,0,1,1,2.15-2.146A2.143,2.143,0,0,1,1828.88,82.618Z" transform="translate(-1811 -62.594)" />
    </g>
  </symbol>

  <symbol id="arrow" viewBox="0 0 22 9">
    <g>
      <path d="M526.3,654.472h16.948l-0.1,2.857a0.292,0.292,0,0,0,0,.41l0.172,0.172a0.28,0.28,0,0,0,.2.086,0.285,0.285,0,0,0,.2-0.084l4.193-4.211A0.292,0.292,0,0,0,548,653.5a0.283,0.283,0,0,0-.084-0.2l-4.193-4.213a0.289,0.289,0,0,0-.407,0l-0.172.173a0.287,0.287,0,0,0-.084.2,0.278,0.278,0,0,0,.084.2l0.113,2.865H526.292a0.3,0.3,0,0,0-.292.295v1.37A0.292,0.292,0,0,0,526.3,654.472Z" transform="translate(-526 -649)" />
    </g>
  </symbol>

  <symbol id="support" viewBox="0 0 50.875 53.13">
    <g>
      <path class="opacity" d="M263.984,1044.59a9.815,9.815,0,1,1-9.8,9.82A9.811,9.811,0,0,1,263.984,1044.59Z" transform="translate(-222.906 -1011.09)" />
      <path d="M268.312,1022.67a0.937,0.937,0,0,0-1.592.99,22.684,22.684,0,0,1-32.86,30.14,0.938,0.938,0,0,0-1.125,1.5A24.559,24.559,0,0,0,268.312,1022.67Zm-23.03,21.94h-7.55l4.743-4.75a12.68,12.68,0,0,0,3.744-9.03,5.844,5.844,0,1,0-11.688,0,0.938,0.938,0,0,0,1.875,0,3.969,3.969,0,1,1,7.938,0,10.836,10.836,0,0,1-3.195,7.71l-6.344,6.34a0.949,0.949,0,0,0-.2,1.03,0.93,0.93,0,0,0,.866.57h9.813A0.935,0.935,0,1,0,245.282,1044.61Zm15.039-6.44h-2.6v-1.52a0.938,0.938,0,0,0-1.875,0v1.52h-5.286l5.286-8.85v4.21a0.938,0.938,0,1,0,1.875,0v-7.62a0.957,0.957,0,0,0-.456-0.8,0.94,0.94,0,0,0-1.286.33l-7.875,13.19a0.933,0.933,0,0,0-.011.94,0.951,0.951,0,0,0,.816.48h6.938v5.5a0.938,0.938,0,0,0,1.875,0v-5.5h2.6A0.94,0.94,0,0,0,260.321,1038.17Zm5.33-22.63a0.938,0.938,0,1,0-1.875.04l0.042,1.75a24.556,24.556,0,0,0-33.549,35.85,0.93,0.93,0,0,0,.656.27,0.92,0.92,0,0,0,.669-0.28,0.942,0.942,0,0,0-.013-1.33,22.679,22.679,0,0,1,15.882-38.87,22.745,22.745,0,0,1,15.107,5.77l-1.843.04a0.935,0.935,0,0,0,.022,1.87h0.023l4.06-.09a0.934,0.934,0,0,0,.915-0.96Z" transform="translate(-222.906 -1011.09)" />
    </g>
  </symbol>

  <symbol id="delivery" viewBox="0 0 53.75 36.44">
    <g>
      <path d="M812.816,1025.33H806.69a0.79,0.79,0,0,0,0,1.58h6.126A0.79,0.79,0,0,0,812.816,1025.33Zm0.524,11.01h-5.6a0.785,0.785,0,1,0,0,1.57h5.6A0.785,0.785,0,1,0,813.34,1036.34Zm-2.094-4.72H804.6a0.79,0.79,0,0,0,0,1.58h6.65A0.79,0.79,0,0,0,811.246,1031.62Zm0,11.01H810.6a0.785,0.785,0,1,0,0,1.57h0.644A0.785,0.785,0,1,0,811.246,1042.63Zm-3.263,0H804.6a0.785,0.785,0,1,0,0,1.57h3.387A0.785,0.785,0,1,0,807.983,1042.63Zm36.86-19.86h-6.657v-1.42a0.784,0.784,0,0,0-.786-0.78H825.225a0.785,0.785,0,1,0,0,1.57h11.39v17.22a0.786,0.786,0,1,0,1.571,0v-15.02h6.657a6.519,6.519,0,0,1,6.509,6.52v13.29h-2a4.974,4.974,0,0,0-9.824,0h-1.345v-1.12a0.786,0.786,0,1,0-1.571,0v1.12h-8.336a4.974,4.974,0,0,0-9.823,0h-1.634v-22.01h5.261a0.785,0.785,0,1,0,0-1.57h-6.046a0.783,0.783,0,0,0-.785.78v23.59a0.791,0.791,0,0,0,.785.79h2.419a4.974,4.974,0,0,0,9.823,0h11.252a4.974,4.974,0,0,0,9.824,0h2.782a0.791,0.791,0,0,0,.785-0.79v-14.08A8.094,8.094,0,0,0,844.843,1022.77Zm-21.475,25.58a3.41,3.41,0,1,1,3.4-3.41A3.411,3.411,0,0,1,823.368,1048.35Zm21.075,0a3.411,3.411,0,0,1-3.4-3.41h0A3.4,3.4,0,1,1,844.443,1048.35Zm0.4-22.44h-4.3a0.791,0.791,0,0,0-.785.79v7.39a0.791,0.791,0,0,0,.785.79H849a0.792,0.792,0,0,0,.786-0.79v-3.23A4.949,4.949,0,0,0,844.843,1025.91Zm3.367,7.39h-6.882v-5.81h3.515a3.371,3.371,0,0,1,3.367,3.37v2.44Zm-24.842,9.61a2.03,2.03,0,1,0,2.024,2.03A2.029,2.029,0,0,0,823.368,1042.91Zm0,2.49a0.46,0.46,0,0,1-.455-0.46,0.455,0.455,0,0,1,.909,0A0.46,0.46,0,0,1,823.368,1045.4Zm21.075-2.49a2.03,2.03,0,1,0,2.025,2.03A2.03,2.03,0,0,0,844.443,1042.91Zm0,2.49a0.46,0.46,0,0,1-.454-0.46,0.454,0.454,0,0,1,.908,0A0.46,0.46,0,0,1,844.443,1045.4Zm4.552-8.37a0.783,0.783,0,0,0-.785.78v1.99a0.786,0.786,0,1,0,1.571,0v-1.99A0.784,0.784,0,0,0,849,1037.03Z" transform="translate(-803.812 -1020.56)" />
      <circle class="opacity" cx="43.938" cy="26.645" r="7.5" />
    </g>
  </symbol>

  <symbol id="payment" viewBox="0 0 53.56 52.25">
    <g>
      <path d="M1444.43,1042.32a0.83,0.83,0,0,0-.84.83v8.27a2.164,2.164,0,0,1-2.16,2.16h-39.34a2.164,2.164,0,0,1-2.16-2.16V1039.5h27.29a0.84,0.84,0,1,0,0-1.68h-27.29v-5.47h9.87a0.828,0.828,0,0,0,.83-0.83,0.837,0.837,0,0,0-.83-0.84h-9.87v-2.88a2.166,2.166,0,0,1,2.16-2.17h25.13a0.835,0.835,0,1,0,0-1.67h-25.13a3.839,3.839,0,0,0-3.83,3.84v23.62a3.837,3.837,0,0,0,3.83,3.83h39.34a3.837,3.837,0,0,0,3.83-3.83v-8.27A0.828,0.828,0,0,0,1444.43,1042.32Zm-17.21-11.64H1413a0.837,0.837,0,0,0-.83.84,0.828,0.828,0,0,0,.83.83h14.22a0.837,0.837,0,0,0,.84-0.83A0.845,0.845,0,0,0,1427.22,1030.68Zm-9.24,11.56h-14.27a0.835,0.835,0,0,0,0,1.67h14.27A0.835,0.835,0,1,0,1417.98,1042.24Zm-6.08,3.99h-8.19a0.835,0.835,0,0,0,0,1.67h8.19A0.835,0.835,0,0,0,1411.9,1046.23Zm34.63-13.61a0.832,0.832,0,0,0,.84-0.84v-4.77a3.038,3.038,0,0,0-2.39-2.97v-6.02a6.6,6.6,0,1,0-13.19,0v6.02a3.053,3.053,0,0,0-2.4,2.97v10.75a3.045,3.045,0,0,0,3.04,3.04h11.9a3.039,3.039,0,0,0,3.04-3.04v-3.19a0.835,0.835,0,0,0-1.67,0v3.19a1.379,1.379,0,0,1-1.37,1.37h-11.9a1.379,1.379,0,0,1-1.37-1.37v-10.75a1.379,1.379,0,0,1,1.37-1.37h11.9a1.379,1.379,0,0,1,1.37,1.37v4.77A0.83,0.83,0,0,0,1446.53,1032.62Zm-3.23-8.65h-9.84v-5.95a4.92,4.92,0,1,1,9.84,0v5.95h0Zm-4.92,4.32a3.092,3.092,0,0,0-.83,6.07v2.04a0.83,0.83,0,0,0,.83.84,0.839,0.839,0,0,0,.84-0.84v-2.04A3.094,3.094,0,0,0,1438.38,1028.29Zm0,4.52a1.425,1.425,0,1,1,1.42-1.43A1.428,1.428,0,0,1,1438.38,1032.81Z" transform="translate(-1398.25 -1011.41)" />
      <circle class="opacity" cx="43.75" cy="42.45" r="9.812" />
    </g>
  </symbol>
</svg>