<svg xmlns="http://www.w3.org/2000/svg" width="61.203" height="47.466" viewBox="0 0 50.125 38.875">
  <defs>
    <style>
      .cls-1 {
        fill: #a3bbc8;
        fill-rule: evenodd;
      }
    </style>
  </defs>
  <path id="Path_324" data-name="Path 324" class="cls-1" d="M81.157,76.674a1.13,1.13,0,0,0,.622.387l48.041,9.8a1.137,1.137,0,0,0,.908-0.212,0.874,0.874,0,0,0,.31-0.8h0l-6.251-37.079a0.962,0.962,0,0,0-.449-0.645,1.337,1.337,0,0,0-.965-0.051L88.179,62.118a0.9,0.9,0,0,0-.507.452c-0.171.325-6.494,13.076-6.583,13.257A0.806,0.806,0,0,0,81.157,76.674Zm45.586,6.436-20.05-11.145,10.339-2.159Zm-37.7-18.883,12.522,6.983L83.736,74.925Zm1.662-1.172L122.24,50.468l-5.558,17.587L104.31,70.639ZM128.363,82.05l-9.779-13.4,4.9-15.52Zm-3.886,1.9L86.426,76.187l17.523-3.65Z" transform="translate(-81 -48)"/>
</svg>
